HIERARCHY
ROOT mixamorig:Hips
{
	OFFSET -0.000008 104.274872 1.554316
	CHANNELS 6 Xposition Yposition Zposition Xrotation Yrotation Zrotation
	JOINT mixamorig:Spine
	{
		OFFSET -0.000005 10.181595 0.131519
		CHANNELS 6 Xposition Yposition Zposition Xrotation Yrotation Zrotation
		JOINT mixamorig:Spine1
		{
			OFFSET -0.000000 9.893959 -1.470707
			CHANNELS 6 Xposition Yposition Zposition Xrotation Yrotation Zrotation
			JOINT mixamorig:Spine2
			{
				OFFSET -0.000000 9.220757 -1.370641
				CHANNELS 6 Xposition Yposition Zposition Xrotation Yrotation Zrotation
				JOINT mixamorig:Neck
				{
					OFFSET 0.000001 16.740417 -2.049036
					CHANNELS 6 Xposition Yposition Zposition Xrotation Yrotation Zrotation
					JOINT mixamorig:Head
					{
						OFFSET 0.000000 9.617874 1.685006
						CHANNELS 6 Xposition Yposition Zposition Xrotation Yrotation Zrotation
						JOINT mixamorig:HeadTop_End
						{
							OFFSET 0.000002 22.037354 7.501101
							CHANNELS 6 Xposition Yposition Zposition Xrotation Yrotation Zrotation
							End Site
							{
								OFFSET 0.000168 2310.654297 -282.823242
							}
						}
					}
				}
				JOINT mixamorig:RightShoulder
				{
					OFFSET -4.569970 11.014908 -2.160885
					CHANNELS 6 Xposition Yposition Zposition Xrotation Yrotation Zrotation
					JOINT mixamorig:RightArm
					{
						OFFSET -10.592851 -0.524811 -2.232101
						CHANNELS 6 Xposition Yposition Zposition Xrotation Yrotation Zrotation
						JOINT mixamorig:RightForeArm
						{
							OFFSET -27.841511 0.000031 -0.000004
							CHANNELS 6 Xposition Yposition Zposition Xrotation Yrotation Zrotation
							JOINT mixamorig:RightHand
							{
								OFFSET -28.328831 -0.000015 0.000015
								CHANNELS 6 Xposition Yposition Zposition Xrotation Yrotation Zrotation
								JOINT mixamorig:RightHandThumb1
								{
									OFFSET -2.464806 -1.573990 2.681852
									CHANNELS 6 Xposition Yposition Zposition Xrotation Yrotation Zrotation
									JOINT mixamorig:RightHandThumb2
									{
										OFFSET -3.215179 -1.872803 1.924282
										CHANNELS 6 Xposition Yposition Zposition Xrotation Yrotation Zrotation
										JOINT mixamorig:RightHandThumb3
										{
											OFFSET -2.654831 -1.527969 1.512609
											CHANNELS 6 Xposition Yposition Zposition Xrotation Yrotation Zrotation
											JOINT mixamorig:RightHandThumb4
											{
												OFFSET -2.018814 -1.152008 1.108052
												CHANNELS 6 Xposition Yposition Zposition Xrotation Yrotation Zrotation
												End Site
												{
													OFFSET -188.809540 -114.533607 132.431396
												}
											}
										}
									}
								}
								JOINT mixamorig:RightHandIndex1
								{
									OFFSET -9.108284 -0.517868 2.259835
									CHANNELS 6 Xposition Yposition Zposition Xrotation Yrotation Zrotation
									JOINT mixamorig:RightHandIndex2
									{
										OFFSET -3.699989 0.000000 0.001215
										CHANNELS 6 Xposition Yposition Zposition Xrotation Yrotation Zrotation
										JOINT mixamorig:RightHandIndex3
										{
											OFFSET -2.850006 0.000031 -0.000522
											CHANNELS 6 Xposition Yposition Zposition Xrotation Yrotation Zrotation
											JOINT mixamorig:RightHandIndex4
											{
												OFFSET -2.772186 -0.000015 -0.000020
												CHANNELS 6 Xposition Yposition Zposition Xrotation Yrotation Zrotation
												End Site
												{
													OFFSET -277.218445 0.000000 -0.050231
												}
											}
										}
									}
								}
								JOINT mixamorig:RightHandMiddle1
								{
									OFFSET -9.532516 -0.000031 -0.000023
									CHANNELS 6 Xposition Yposition Zposition Xrotation Yrotation Zrotation
									JOINT mixamorig:RightHandMiddle2
									{
										OFFSET -3.700005 -0.000015 0.003713
										CHANNELS 6 Xposition Yposition Zposition Xrotation Yrotation Zrotation
										JOINT mixamorig:RightHandMiddle3
										{
											OFFSET -2.949974 0.000015 -0.002054
											CHANNELS 6 Xposition Yposition Zposition Xrotation Yrotation Zrotation
											JOINT mixamorig:RightHandMiddle4
											{
												OFFSET -2.946640 0.000000 -0.000156
												CHANNELS 6 Xposition Yposition Zposition Xrotation Yrotation Zrotation
												End Site
												{
													OFFSET -294.664337 0.000000 -0.113670
												}
											}
										}
									}
								}
								JOINT mixamorig:RightHandRing1
								{
									OFFSET -9.103600 -0.043076 -1.865134
									CHANNELS 6 Xposition Yposition Zposition Xrotation Yrotation Zrotation
									JOINT mixamorig:RightHandRing2
									{
										OFFSET -3.379288 0.000000 -0.001055
										CHANNELS 6 Xposition Yposition Zposition Xrotation Yrotation Zrotation
										JOINT mixamorig:RightHandRing3
										{
											OFFSET -2.889687 -0.000015 0.000379
											CHANNELS 6 Xposition Yposition Zposition Xrotation Yrotation Zrotation
											JOINT mixamorig:RightHandRing4
											{
												OFFSET -2.638809 -0.000015 0.000941
												CHANNELS 6 Xposition Yposition Zposition Xrotation Yrotation Zrotation
												End Site
												{
													OFFSET -263.880371 0.000000 0.516020
												}
											}
										}
									}
								}
								JOINT mixamorig:RightHandPinky1
								{
									OFFSET -8.076683 -0.486710 -3.806280
									CHANNELS 6 Xposition Yposition Zposition Xrotation Yrotation Zrotation
									JOINT mixamorig:RightHandPinky2
									{
										OFFSET -3.600014 -0.000015 -0.003747
										CHANNELS 6 Xposition Yposition Zposition Xrotation Yrotation Zrotation
										JOINT mixamorig:RightHandPinky3
										{
											OFFSET -2.099983 0.000000 -0.005739
											CHANNELS 6 Xposition Yposition Zposition Xrotation Yrotation Zrotation
											JOINT mixamorig:RightHandPinky4
											{
												OFFSET -2.115768 -0.000031 -0.003680
												CHANNELS 6 Xposition Yposition Zposition Xrotation Yrotation Zrotation
												End Site
												{
													OFFSET -211.577087 0.000000 -0.350686
												}
											}
										}
									}
								}
							}
						}
					}
				}
				JOINT mixamorig:LeftShoulder
				{
					OFFSET 4.570447 11.014725 -2.160855
					CHANNELS 6 Xposition Yposition Zposition Xrotation Yrotation Zrotation
					JOINT mixamorig:LeftArm
					{
						OFFSET 10.592371 -0.524597 -2.232119
						CHANNELS 6 Xposition Yposition Zposition Xrotation Yrotation Zrotation
						JOINT mixamorig:LeftForeArm
						{
							OFFSET 27.841532 -0.000031 0.000026
							CHANNELS 6 Xposition Yposition Zposition Xrotation Yrotation Zrotation
							JOINT mixamorig:LeftHand
							{
								OFFSET 28.328846 -0.000061 0.000022
								CHANNELS 6 Xposition Yposition Zposition Xrotation Yrotation Zrotation
								JOINT mixamorig:LeftHandThumb1
								{
									OFFSET 2.466141 -1.576172 2.681732
									CHANNELS 6 Xposition Yposition Zposition Xrotation Yrotation Zrotation
									JOINT mixamorig:LeftHandThumb2
									{
										OFFSET 3.217812 -1.872070 1.916482
										CHANNELS 6 Xposition Yposition Zposition Xrotation Yrotation Zrotation
										JOINT mixamorig:LeftHandThumb3
										{
											OFFSET 2.656029 -1.528778 1.514513
											CHANNELS 6 Xposition Yposition Zposition Xrotation Yrotation Zrotation
											JOINT mixamorig:LeftHandThumb4
											{
												OFFSET 2.020889 -1.154053 1.115139
												CHANNELS 6 Xposition Yposition Zposition Xrotation Yrotation Zrotation
												End Site
												{
													OFFSET 190.885437 -115.081749 130.048782
												}
											}
										}
									}
								}
								JOINT mixamorig:LeftHandIndex1
								{
									OFFSET 9.109314 -0.518021 2.259871
									CHANNELS 6 Xposition Yposition Zposition Xrotation Yrotation Zrotation
									JOINT mixamorig:LeftHandIndex2
									{
										OFFSET 3.699989 0.000000 -0.000322
										CHANNELS 6 Xposition Yposition Zposition Xrotation Yrotation Zrotation
										JOINT mixamorig:LeftHandIndex3
										{
											OFFSET 2.850006 0.000000 0.000352
											CHANNELS 6 Xposition Yposition Zposition Xrotation Yrotation Zrotation
											JOINT mixamorig:LeftHandIndex4
											{
												OFFSET 2.774864 -0.000031 -0.000027
												CHANNELS 6 Xposition Yposition Zposition Xrotation Yrotation Zrotation
												End Site
												{
													OFFSET 277.486267 0.000000 -0.009857
												}
											}
										}
									}
								}
								JOINT mixamorig:LeftHandMiddle1
								{
									OFFSET 9.533394 0.000061 0.000044
									CHANNELS 6 Xposition Yposition Zposition Xrotation Yrotation Zrotation
									JOINT mixamorig:LeftHandMiddle2
									{
										OFFSET 3.699989 -0.000015 -0.000231
										CHANNELS 6 Xposition Yposition Zposition Xrotation Yrotation Zrotation
										JOINT mixamorig:LeftHandMiddle3
										{
											OFFSET 2.949997 -0.000015 -0.000059
											CHANNELS 6 Xposition Yposition Zposition Xrotation Yrotation Zrotation
											JOINT mixamorig:LeftHandMiddle4
											{
												OFFSET 2.952896 0.000031 0.000063
												CHANNELS 6 Xposition Yposition Zposition Xrotation Yrotation Zrotation
												End Site
												{
													OFFSET 295.289337 0.000000 0.022810
												}
											}
										}
									}
								}
								JOINT mixamorig:LeftHandRing1
								{
									OFFSET 9.104523 -0.042999 -1.865074
									CHANNELS 6 Xposition Yposition Zposition Xrotation Yrotation Zrotation
									JOINT mixamorig:LeftHandRing2
									{
										OFFSET 3.150009 -0.000031 0.000043
										CHANNELS 6 Xposition Yposition Zposition Xrotation Yrotation Zrotation
										JOINT mixamorig:LeftHandRing3
										{
											OFFSET 2.949982 -0.000015 0.000040
											CHANNELS 6 Xposition Yposition Zposition Xrotation Yrotation Zrotation
											JOINT mixamorig:LeftHandRing4
											{
												OFFSET 2.644348 0.000000 0.000057
												CHANNELS 6 Xposition Yposition Zposition Xrotation Yrotation Zrotation
												End Site
												{
													OFFSET 264.434631 0.000000 0.012105
												}
											}
										}
									}
								}
								JOINT mixamorig:LeftHandPinky1
								{
									OFFSET 8.077789 -0.486847 -3.806259
									CHANNELS 6 Xposition Yposition Zposition Xrotation Yrotation Zrotation
									JOINT mixamorig:LeftHandPinky2
									{
										OFFSET 3.599953 0.000031 0.014727
										CHANNELS 6 Xposition Yposition Zposition Xrotation Yrotation Zrotation
										JOINT mixamorig:LeftHandPinky3
										{
											OFFSET 2.100021 0.000015 0.007705
											CHANNELS 6 Xposition Yposition Zposition Xrotation Yrotation Zrotation
											JOINT mixamorig:LeftHandPinky4
											{
												OFFSET 2.125504 0.000031 0.007517
												CHANNELS 6 Xposition Yposition Zposition Xrotation Yrotation Zrotation
												End Site
												{
													OFFSET 212.550781 0.000000 0.625752
												}
											}
										}
									}
								}
							}
						}
					}
				}
			}
		}
	}
	JOINT mixamorig:RightUpLeg
	{
		OFFSET -8.207787 -6.751648 -1.599560
		CHANNELS 6 Xposition Yposition Zposition Xrotation Yrotation Zrotation
		JOINT mixamorig:RightLeg
		{
			OFFSET -0.000002 -44.370117 0.345942
			CHANNELS 6 Xposition Yposition Zposition Xrotation Yrotation Zrotation
			JOINT mixamorig:RightFoot
			{
				OFFSET 0.000003 -44.423679 -3.043532
				CHANNELS 6 Xposition Yposition Zposition Xrotation Yrotation Zrotation
				JOINT mixamorig:RightToeBase
				{
					OFFSET -0.000002 -8.728671 10.710558
					CHANNELS 6 Xposition Yposition Zposition Xrotation Yrotation Zrotation
					JOINT mixamorig:RightToe_End
					{
						OFFSET -0.000001 -0.000679 9.278119
						CHANNELS 6 Xposition Yposition Zposition Xrotation Yrotation Zrotation
						End Site
						{
							OFFSET 0.000000 -0.067690 927.812134
						}
					}
				}
			}
		}
	}
	JOINT mixamorig:LeftUpLeg
	{
		OFFSET 8.207793 -6.751686 -1.599556
		CHANNELS 6 Xposition Yposition Zposition Xrotation Yrotation Zrotation
		JOINT mixamorig:LeftLeg
		{
			OFFSET -0.000004 -44.370014 0.346954
			CHANNELS 6 Xposition Yposition Zposition Xrotation Yrotation Zrotation
			JOINT mixamorig:LeftFoot
			{
				OFFSET -0.000001 -44.423672 -3.044401
				CHANNELS 6 Xposition Yposition Zposition Xrotation Yrotation Zrotation
				JOINT mixamorig:LeftToeBase
				{
					OFFSET -0.000002 -8.728669 10.710558
					CHANNELS 6 Xposition Yposition Zposition Xrotation Yrotation Zrotation
					JOINT mixamorig:LeftToe_End
					{
						OFFSET -0.000003 -0.000679 9.278133
						CHANNELS 6 Xposition Yposition Zposition Xrotation Yrotation Zrotation
						End Site
						{
							OFFSET 0.000000 -0.068021 927.813477
						}
					}
				}
			}
		}
	}
}
MOTION
Frames: 3
Frame Time: 0.033333
0.000006 104.270477 1.554256 0.000010 0.000003 -0.000113 -0.000005 10.181587 0.131522 0.000001 -0.000003 0.000084 -0.000000 9.893967 -1.470711 0.000001 0.000000 -0.000000 -0.000000 9.220802 -1.370642 0.000000 -0.000000 -0.000000 0.000001 16.740433 -2.049030 0.000000 -0.000000 -0.000000 0.000000 9.617859 1.685014 0.000000 0.000000 0.000000 0.000002 22.037384 7.501101 0.000000 -0.000000 0.000000 -4.569968 11.014880 -2.160881 0.000008 0.000001 -0.000038 -10.592868 -0.524778 -2.231887 68.733806 34.965962 -24.311459 -27.841528 0.000012 0.000544 -54.739417 116.783216 80.141096 -28.328831 0.000008 0.000022 -0.000321 -0.000044 0.000008 -2.464428 -1.573736 2.682306 -51.098004 -168.750287 -18.861453 -3.215267 -1.872551 1.924662 154.001272 32.479646 9.801845 -2.654947 -1.527882 1.513072 148.105535 26.653881 -37.598002 -2.018823 -1.152001 1.108064 -0.000002 -0.000003 0.000004 -9.108385 -0.517565 2.260133 100.877509 16.911113 -20.458290 -3.700074 0.000306 0.001526 97.796773 14.598988 -16.678651 -2.850066 0.000369 -0.000258 96.277445 11.928499 -13.299808 -2.772170 -0.000000 -0.000023 -0.000000 0.000001 -0.000000 -9.532610 0.000260 0.000251 95.863932 19.146777 -21.330865 -3.700078 0.000316 0.003988 95.234659 14.043924 -15.268283 -2.950079 0.000331 -0.001776 97.469777 12.476485 -14.194260 -2.946640 -0.000000 -0.000154 -0.000000 -0.000000 -0.000000 -9.103706 -0.042767 -1.864852 94.486993 21.057405 -22.681824 -3.379340 0.000320 -0.000794 94.889523 10.606266 -11.565292 -2.889759 0.000349 0.000680 100.867626 7.057322 -8.591293 -2.638811 -0.000021 0.000940 0.000000 0.000000 -0.000002 -8.076778 -0.486422 -3.806037 83.812275 22.751015 -20.327007 -3.600071 0.000278 -0.003524 87.599334 10.419774 -9.645036 -2.099993 0.000322 -0.005490 90.746351 4.892586 -4.736834 -2.115777 -0.000042 -0.003678 -0.000001 0.000000 -0.000006 4.570446 11.014691 -2.160851 -0.000018 0.000010 -0.000021 10.592482 -0.524584 -2.232343 27.632405 -69.178205 19.249645 27.841743 -0.000083 -0.000091 54.008102 -107.235978 69.341665 28.328838 -0.000015 0.000024 0.000019 -0.000087 -0.000000 2.466138 -1.576204 2.681797 151.620870 169.081592 -173.861728 3.217834 -1.871982 1.916533 -54.734462 22.256315 16.187786 2.656039 -1.528772 1.514619 -98.198511 36.109547 42.571753 2.020902 -1.154054 1.115153 0.000001 0.000001 0.000004 9.109121 -0.517712 2.260032 -153.438478 -15.558150 -60.110446 3.700107 0.000111 -0.000361 -57.724920 -146.981054 236.570104 2.850052 0.000138 0.000239 75.096967 -17.726509 13.669318 2.774869 -0.000032 -0.000026 0.000002 -0.000001 -0.000002 9.533216 0.000399 0.000199 -156.447532 -12.599503 -55.793988 3.700098 0.000203 -0.000329 -248.846249 -17.976064 25.988696 2.950048 0.000123 -0.000197 70.193793 -6.067883 4.268025 2.952875 -0.000017 0.000071 -0.000002 -0.000001 -0.000001 9.104365 -0.042675 -1.864933 -156.762212 -10.742658 -49.150612 3.150009 0.000315 -0.000099 -252.878711 -0.728861 0.989279 2.949942 0.000124 -0.000143 62.563003 7.863025 -4.781300 2.644315 0.000047 0.000058 -0.000001 -0.000002 0.000004 8.077634 -0.486510 -3.806119 -157.903346 -8.362991 -42.307093 3.599922 0.000322 0.014517 -257.019144 6.677178 -7.920602 2.099960 0.000150 0.007507 59.985392 14.997419 -8.531080 2.125502 -0.000014 0.007515 -0.000002 0.000003 -0.000003 -8.207786 -6.751667 -1.599560 -0.077001 -0.000003 0.000080 -0.000002 -44.370110 0.345938 0.153719 -0.000000 -0.000000 0.000000 -44.423679 -3.043532 -0.076700 0.000000 -0.000002 -0.000006 -8.728667 10.710559 -0.000009 -0.000000 -0.000000 -0.000001 -0.000679 9.278123 0.000000 -0.000000 -0.000000 8.207792 -6.751710 -1.599556 -0.074518 -0.000003 0.000081 -0.000002 -44.370014 0.346960 0.148822 0.000002 0.000000 -0.000001 -44.423664 -3.044403 -0.074314 0.000000 -0.000002 -0.000004 -8.728671 10.710558 0.000007 -0.000000 -0.000000 0.000000 -0.000680 9.278137 -0.000000 0.000000 -0.000001 
0.000006 104.270477 1.554256 0.000010 0.000003 -0.000113 -0.000005 10.181587 0.131522 0.000001 -0.000003 0.000084 -0.000000 9.893967 -1.470711 0.000001 0.000000 -0.000000 -0.000000 9.220802 -1.370642 0.000000 -0.000000 -0.000000 0.000001 16.740433 -2.049030 0.000000 -0.000000 -0.000000 0.000000 9.617859 1.685014 0.000000 0.000000 0.000000 0.000002 22.037384 7.501101 0.000000 -0.000000 0.000000 -4.569968 11.014880 -2.160881 0.000008 0.000001 -0.000038 -10.592867 -0.524778 -2.231884 68.589736 35.699859 -24.774329 -27.841537 0.000010 0.000550 -54.400882 118.063809 81.154730 -28.328831 0.000022 0.000024 -0.000321 -0.000045 0.000007 -2.464417 -1.573733 2.682312 -50.302974 -167.473465 -16.465769 -3.215267 -1.872553 1.924644 153.948120 32.604396 10.643084 -2.654938 -1.527893 1.513079 148.213930 26.638100 -37.538371 -2.018831 -1.152000 1.108070 -0.000002 -0.000003 0.000004 -9.108398 -0.517558 2.260133 101.081575 16.940601 -20.566550 -3.700068 0.000292 0.001517 97.698561 14.429796 -16.457633 -2.850075 0.000371 -0.000269 95.958065 11.755449 -13.034540 -2.772178 -0.000015 -0.000020 -0.000000 0.000001 -0.000000 -9.532608 0.000261 0.000257 96.090639 19.034458 -21.289677 -3.700059 0.000323 0.003976 95.140656 13.787759 -14.964289 -2.950060 0.000341 -0.001781 97.276087 12.340394 -13.992406 -2.946624 -0.000014 -0.000157 0.000000 0.000001 -0.000000 -9.103717 -0.042768 -1.864871 94.597437 21.004076 -22.667152 -3.379345 0.000318 -0.000804 94.953044 10.385631 -11.337821 -2.889742 0.000354 0.000655 100.915116 6.991388 -8.518752 -2.638809 -0.000018 0.000941 0.000000 0.000000 -0.000000 -8.076778 -0.486407 -3.806021 83.800814 22.762688 -20.333536 -3.600059 0.000272 -0.003524 87.720201 10.411017 -9.656953 -2.100018 0.000328 -0.005472 91.054358 4.947010 -4.817584 -2.115767 -0.000043 -0.003679 0.000001 0.000001 -0.000004 4.570446 11.014691 -2.160851 -0.000018 0.000010 -0.000021 10.592476 -0.524578 -2.232348 28.832657 -67.779976 19.593644 27.841732 -0.000081 -0.000095 54.844319 -107.795125 70.859647 28.328835 -0.000013 0.000018 0.000016 -0.000090 -0.000001 2.466138 -1.576194 2.681819 149.959986 168.890347 -173.306597 3.217838 -1.871982 1.916552 -55.837763 23.519166 16.756283 2.656043 -1.528760 1.514599 -99.944942 38.330216 44.615134 2.020891 -1.154072 1.115141 0.000002 0.000004 0.000002 9.109102 -0.517709 2.260042 -154.580158 -15.039382 -60.665972 3.700116 0.000118 -0.000355 -52.924435 -147.522278 240.702615 2.850064 0.000160 0.000222 80.020324 -17.709004 14.898746 2.774871 -0.000029 -0.000025 -0.000001 0.000001 0.000000 9.533211 0.000410 0.000201 -158.135313 -11.151146 -53.610216 3.700104 0.000218 -0.000338 -246.005628 -17.474667 26.622168 2.950030 0.000142 -0.000219 72.575445 -6.574995 4.832101 2.952857 -0.000030 0.000056 0.000001 0.000000 0.000001 9.104352 -0.042683 -1.864930 -158.051575 -10.255852 -49.670970 3.150018 0.000301 -0.000114 -249.261388 -2.250383 3.260235 2.949961 0.000140 -0.000141 65.821228 5.763928 -3.731354 2.644351 0.000041 0.000055 0.000003 0.000003 -0.000004 8.077618 -0.486498 -3.806107 -159.471462 -9.161185 -48.870044 3.599945 0.000316 0.014543 -254.755893 3.683587 -4.303496 2.099969 0.000143 0.007514 63.111214 12.169849 -7.305270 2.125482 -0.000015 0.007514 -0.000001 -0.000002 0.000006 -8.207786 -6.751667 -1.599560 -0.077001 -0.000003 0.000080 -0.000002 -44.370110 0.345938 0.153719 -0.000000 -0.000000 0.000000 -44.423679 -3.043532 -0.076700 0.000000 -0.000002 -0.000006 -8.728667 10.710559 -0.000009 -0.000000 -0.000000 -0.000001 -0.000679 9.278123 0.000000 -0.000000 -0.000000 8.207792 -6.751710 -1.599556 -0.074518 -0.000003 0.000081 -0.000002 -44.370014 0.346960 0.148822 0.000002 0.000000 -0.000001 -44.423664 -3.044403 -0.074314 0.000000 -0.000002 -0.000004 -8.728671 10.710558 0.000007 -0.000000 -0.000000 0.000000 -0.000680 9.278137 -0.000000 0.000000 -0.000001 
0.000006 104.270477 1.554256 0.000010 0.000003 -0.000113 -0.000005 10.181587 0.131522 0.000001 -0.000003 0.000084 -0.000000 9.893967 -1.470711 0.000001 0.000000 -0.000000 -0.000000 9.220802 -1.370642 0.000000 -0.000000 -0.000000 0.000001 16.740433 -2.049030 0.000000 -0.000000 -0.000000 0.000000 9.617859 1.685014 0.000000 0.000000 0.000000 0.000002 22.037384 7.501101 0.000000 -0.000000 0.000000 -4.569968 11.014880 -2.160881 0.000008 0.000001 -0.000038 -10.592869 -0.524773 -2.231886 68.574211 35.359920 -24.523405 -27.841534 0.000014 0.000561 -54.304775 118.713291 81.767862 -28.328848 -0.000005 0.000024 -0.000321 -0.000046 0.000008 -2.464440 -1.573750 2.682325 -49.283449 -166.039249 -13.582470 -3.215266 -1.872560 1.924645 153.958570 32.375425 9.193610 -2.654948 -1.527886 1.513077 147.984695 26.793628 -36.489346 -2.018834 -1.152016 1.108052 0.000002 -0.000005 0.000002 -9.108413 -0.517555 2.260126 101.412702 16.810711 -20.528366 -3.700076 0.000308 0.001517 98.115654 14.289389 -16.416353 -2.850080 0.000367 -0.000256 96.507192 11.711453 -13.110547 -2.772170 -0.000000 -0.000018 -0.000000 -0.000000 -0.000000 -9.532619 0.000256 0.000268 95.900979 18.703384 -20.855286 -3.700067 0.000320 0.003977 95.471872 13.757037 -15.016753 -2.950070 0.000338 -0.001790 97.838901 12.530917 -14.348067 -2.946621 0.000002 -0.000156 0.000000 -0.000000 -0.000001 -9.103711 -0.042777 -1.864847 94.111735 20.788999 -22.250325 -3.379317 0.000316 -0.000800 95.393407 10.567445 -11.624571 -2.889769 0.000345 0.000659 101.538070 7.353516 -9.056291 -2.638808 0.000014 0.000940 -0.000000 -0.000000 -0.000000 -8.076784 -0.486407 -3.806031 83.782877 22.620331 -20.198761 -3.600065 0.000264 -0.003523 88.001038 10.505269 -9.794887 -2.100035 0.000324 -0.005496 91.249838 5.279263 -5.172526 -2.115744 -0.000041 -0.003678 -0.000001 -0.000000 -0.000004 4.570446 11.014691 -2.160851 -0.000018 0.000010 -0.000021 10.592483 -0.524578 -2.232347 28.608328 -69.243672 19.968012 27.841736 -0.000077 -0.000089 55.507069 -107.702999 71.532346 28.328838 -0.000045 0.000024 0.000021 -0.000090 0.000000 2.466143 -1.576193 2.681824 147.643568 168.285520 -172.572024 3.217848 -1.871978 1.916537 -56.105298 22.054000 16.768900 2.656044 -1.528793 1.514585 -100.735284 38.403456 45.163851 2.020879 -1.154100 1.115150 0.000000 0.000007 0.000008 9.109134 -0.517714 2.260034 -155.862991 -14.196397 -60.421431 3.700117 0.000142 -0.000367 -51.563772 -150.050104 237.987532 2.850061 0.000174 0.000212 80.314453 -15.844451 13.392720 2.774870 0.000003 -0.000038 -0.000001 -0.000000 0.000001 9.533215 0.000400 0.000191 -158.595490 -10.906004 -53.583063 3.700067 0.000228 -0.000343 -245.514374 -14.611221 22.533849 2.950038 0.000143 -0.000219 71.417455 -3.817836 2.746656 2.952874 -0.000030 0.000059 0.000007 0.000001 -0.000000 9.104354 -0.042656 -1.864929 -157.857406 -10.071600 -48.491211 3.150005 0.000304 -0.000113 -249.837528 0.179043 -0.254287 2.949955 0.000142 -0.000149 63.845904 8.993338 -5.609161 2.644329 0.000016 0.000062 -0.000001 -0.000002 -0.000001 8.077645 -0.486501 -3.806104 -156.037570 -8.547378 -40.008140 3.599909 0.000330 0.014540 -253.967552 7.233526 -9.111004 2.099941 0.000157 0.007503 65.194804 16.268568 -10.273310 2.125525 0.000001 0.007519 -0.000000 -0.000003 -0.000002 -8.207786 -6.751667 -1.599560 -0.077001 -0.000003 0.000080 -0.000002 -44.370110 0.345938 0.153719 -0.000000 -0.000000 0.000000 -44.423679 -3.043532 -0.076700 0.000000 -0.000002 -0.000006 -8.728667 10.710559 -0.000009 -0.000000 -0.000000 -0.000001 -0.000679 9.278123 0.000000 -0.000000 -0.000000 8.207792 -6.751710 -1.599556 -0.074518 -0.000003 0.000081 -0.000002 -44.370014 0.346960 0.148822 0.000002 0.000000 -0.000001 -44.423664 -3.044403 -0.074314 0.000000 -0.000002 -0.000004 -8.728671 10.710558 0.000007 -0.000000 -0.000000 0.000000 -0.000680 9.278137 -0.000000 0.000000 -0.000001 
